<?xml version="1.0" encoding="utf-8"?>
<!-- Generator: Adobe Illustrator 24.1.1, SVG Export Plug-In . SVG Version: 6.00 Build 0)  -->
<svg version="1.1" id="图层_1" xmlns="http://www.w3.org/2000/svg" xmlns:xlink="http://www.w3.org/1999/xlink" x="0px" y="0px"
	 viewBox="0 0 1117.3 232.4" style="enable-background:new 0 0 1117.3 232.4;" xml:space="preserve">
<style type="text/css">
	.st0{enable-background:new    ;}
	.st1{fill:#609DFF;}
</style>
<g class="st0">
	<path d="M374.2,53.4c-6.7,2-14.5,3.6-23.3,4.8v15.4h25.4v7.1h-25.4v13.9h20.4v31.2H323V94.6h20.4V80.6h-26.8v-7.1h26.8V58.9
		c-7.1,0.6-14.7,0.9-23.1,0.9l-2.5-6.8c21.1,0,38.6-1.9,52.6-5.8L374.2,53.4z M340.6,137.8c-4.1,13.7-9.6,25.7-16.5,35.8l-6.8-4.4
		c7.2-9.8,12.4-20.8,15.7-33.1L340.6,137.8z M364.1,118.8v-17.3h-33.8v17.3H364.1z M364.3,175.5c-6.9,0-10.3-3.8-10.3-11.5v-28.1
		h7.8v26.5c0,3.7,1.6,5.5,4.9,5.5h32.9c3.3,0,5.6-0.7,6.8-2.2c1.8-2,3-7.5,3.6-16.4l7.4,2.3c-0.9,11.1-2.7,18-5.5,20.6
		c-2.4,2.1-6,3.2-10.9,3.2H364.3z M383.5,132.6c4.3,6.3,8.3,13.5,12,21.6l-7,3c-3.7-8.2-7.7-15.7-12.2-22.3L383.5,132.6z
		 M384.5,58.2h16.4c2.2-4.1,3.9-8.5,4.9-13.2l8,1c-1.2,4.2-2.9,8.2-5.1,12.2h27.4v67.3h-51.6V58.2z M391.8,78.8h37.1V65h-37.1V78.8z
		 M391.8,98.5h37.1V85.1h-37.1V98.5z M428.9,118.5v-13.6h-37.1v13.6H428.9z M426.3,133.7c6.9,10.8,12.7,21.9,17.5,33.3l-7,3
		c-5.3-13-11.3-24.4-17.8-34.1L426.3,133.7z"/>
	<path d="M467.4,86.3h22V62.5c-6.1,1.1-13,2-20.6,2.8l-1.6-7.5c18.8-1.7,35-4.9,48.6-9.4l2.8,7.4c-7.3,2.2-14.6,4.1-21.8,5.5v25.1
		h20.4v7.4h-20.4v8.8c7.3,7.3,14.5,15.5,21.6,24.4l-4.5,6.7c-6.9-10.4-12.6-18.4-17.1-23.9v67.7h-7.4v-69.3
		c-5.1,15.5-12.4,29.5-21.9,42.2l-3.5-8.6c11.8-14.2,20-30.2,24.5-48h-21.2V86.3z M521.5,106.9h71.3v7.3h-32.6v21.5h28.3v7.1h-28.3
		V165h36.1v7.4h-80.6V165h36.7v-22.3H525v-7.1h27.4v-21.5h-30.9V106.9z M528.3,51.5h57.1v40.2h-57.1V51.5z M577.9,84.6v-26H536v26
		H577.9z"/>
</g>
<g class="st0">
	<path d="M630.7,60.2h45.5c9.5,0,16.9,2.3,22.3,6.8c5.5,4.6,8.3,11,8.3,19.1c0,5.9-1.7,11-5.1,15.2c-3.3,4-7.6,6.8-12.9,8.4
		c6.8,1.2,12.2,3.9,16.2,8.3c4,4.5,5.9,10.2,5.9,17.1c0,9.8-3.5,17.2-10.6,22.2c-6.2,4.3-14.4,6.4-24.7,6.4h-45.1V60.2z M639.6,67.9
		v38.6h34.8c7.3,0,13.1-1.6,17.3-4.9c4.3-3.4,6.4-8.2,6.4-14.5c0-6.4-2.1-11.2-6.2-14.5c-4.1-3.1-9.8-4.6-17.3-4.6H639.6z
		 M639.6,114V156h36c7.6,0,13.8-1.5,18.6-4.6c5.4-3.8,8.1-9.2,8.1-16.4c0-7.1-2.5-12.4-7.5-16c-4.6-3.4-11.1-5.1-19.3-5.1H639.6z"/>
	<path d="M737.7,60.2h72.6V68h-63.8v38.1h60.3v8h-60.3v41.8h66.3v7.8h-75.1V60.2z"/>
	<path d="M913.9,67.9c7.1,6.1,11.6,14.7,13.5,25.8h-9c-1.6-8.5-5.3-15.1-11-19.9c-6-5-14-7.5-24.1-7.5c-12.1,0-21.7,4.4-28.9,13
		c-7,8.4-10.4,19.5-10.4,33.2c0,13.4,3.5,24.2,10.4,32.2c7.4,8.7,18.1,13,31.9,13c6,0,11.9-0.9,17.7-2.6c5.9-1.8,10.6-4,14.1-6.4
		v-29.4h-35.4v-7.8H927V153c-5,4-11,7.1-17.8,9.3c-7.5,2.3-15.4,3.5-23.5,3.5c-16.2,0-28.9-5.3-38-15.8c-8.3-9.6-12.5-22-12.5-37.4
		c0-15.4,4.1-28,12.3-38c8.8-10.9,20.7-16.4,35.8-16.4C896.1,58.2,906.3,61.4,913.9,67.9z"/>
	<path d="M958.4,60.2h8.8v103.5h-8.8V60.2z"/>
	<path d="M999.6,60.2h10l62.6,89.8h0.4V60.2h9v103.5h-9.9l-62.9-90.5h-0.4v90.5h-8.8V60.2z"/>
</g>
<path class="st1" d="M228.9,1.5c-1.4-1-3-1.5-4.7-1.5c-1.5,0-2.9,0.4-4.2,1.1L4.2,125.7c-2.8,1.5-4.5,4.5-4.2,7.7
	c0,3.2,2.1,6.1,5.2,7.1l51.2,21l138.7-120L83,178.9v45.2c0,3.5,2.2,6.6,5.5,7.8c0.9,0.4,1.9,0.5,2.9,0.5c2.4,0,4.8-1.1,6.2-3.1
	l31.6-38.2l58.8,24c1,0.4,2,0.6,3.1,0.7c4,0,7.5-2.9,8.2-6.9L232.4,9.7C233,6.5,231.6,3.2,228.9,1.5z"/>
</svg>
