<?xml version="1.0" encoding="utf-8"?>
<!-- Generator: Adobe Illustrator 24.1.1, SVG Export Plug-In . SVG Version: 6.00 Build 0)  -->
<svg version="1.1" id="图层_1" xmlns="http://www.w3.org/2000/svg" xmlns:xlink="http://www.w3.org/1999/xlink" x="0px" y="0px"
	 viewBox="0 0 1089.5 254.9" style="enable-background:new 0 0 1089.5 254.9;" xml:space="preserve">
<style type="text/css">
	.st0{fill:#609DFF;}
	.st1{font-family:'PingFang-SC-Regular';}
	.st2{font-size:171px;}
	.st3{letter-spacing:4;}
</style>
<path class="st0" d="M251,1.6c-1.5-1.1-3.3-1.6-5.1-1.6c-1.6,0-3.2,0.4-4.6,1.3L4.6,137.8c-3.1,1.6-4.9,5-4.6,8.5
	c0,3.6,2.3,6.7,5.7,7.8l56.2,23L214,45.5L91.1,196.2v49.6c0,3.8,2.4,7.2,6,8.5c1,0.4,2.1,0.6,3.2,0.6c2.7,0,5.2-1.2,6.8-3.4
	l34.6-41.9l64.4,26.3c1.1,0.4,2.2,0.7,3.4,0.7c4.4,0,8.2-3.2,8.9-7.6l36.4-218.5C255.6,7.2,254,3.6,251,1.6z"/>
<text transform="matrix(1 0 0 1 274 193.4145)" class="st1 st2 st3">憩程Begin</text>
</svg>
