<svg id="图层_1" data-name="图层 1" xmlns="http://www.w3.org/2000/svg" viewBox="0 0 74.93 74.92"><defs><style>.cls-1{fill:#609dff;}</style></defs><path class="cls-1" d="M73.76.47A2.6,2.6,0,0,0,72.25,0a2.56,2.56,0,0,0-1.34.37L1.34,40.51A2.51,2.51,0,0,0,0,43a2.43,2.43,0,0,0,1.67,2.3l16.51,6.77L62.87,13.38,26.75,57.66V72.24a2.7,2.7,0,0,0,1.76,2.51,2.38,2.38,0,0,0,.93.17,2.47,2.47,0,0,0,2-1L41.61,61.62l18.94,7.74a2.76,2.76,0,0,0,1,.21,2.66,2.66,0,0,0,2.63-2.22L74.89,3.14A2.58,2.58,0,0,0,73.76.47Z"/></svg>